HIERARCHY
ROOT hip
{
	OFFSET 0.000000 0.000000 0.000000 
	CHANNELS 6 Xposition Yposition Zposition Xrotation Zrotation Yrotation
	JOINT abdomen
	{
		OFFSET 0.000000 3.402643 0.000000 
		CHANNELS 3 Xrotation Zrotation Yrotation
		JOINT chest
		{
			OFFSET 0.000000 8.438565 -0.680529 
			CHANNELS 3 Xrotation Zrotation Yrotation
			JOINT neck
			{
				OFFSET 0.000000 10.207942 -0.272212 
				CHANNELS 3 Xrotation Zrotation Yrotation
				JOINT head
				{
					OFFSET 0.000000 3.130431 0.000000 
					CHANNELS 3 Xrotation Zrotation Yrotation
					End Site
					{
						OFFSET 0.000000 3.130435 0.000000 
					}
				}
			}
			JOINT lCollar
			{
				OFFSET 3.470700 6.669187 -0.816635 
				CHANNELS 3 Yrotation Zrotation Xrotation
				JOINT lShldr
				{
					OFFSET 3.198488 0.000000 0.000000 
					CHANNELS 3 Zrotation Yrotation Xrotation
					JOINT lForeArm
					{
						OFFSET 10.139888 0.000000 0.000000 
						CHANNELS 3 Yrotation Zrotation Xrotation
						JOINT lHand
						{
							OFFSET 8.370511 0.000000 0.000000 
							CHANNELS 3 Zrotation Yrotation Xrotation
							End Site
							{
								OFFSET 4.083176 0.000000 0.000000 
							}
						}
					}
				}
			}
			JOINT rCollar
			{
				OFFSET -3.470700 6.669187 -0.816635 
				CHANNELS 3 Yrotation Zrotation Xrotation
				JOINT rShldr
				{
					OFFSET -3.198488 0.000000 0.000000 
					CHANNELS 3 Zrotation Yrotation Xrotation
					JOINT rForeArm
					{
						OFFSET -10.139888 0.000000 0.000000 
						CHANNELS 3 Yrotation Zrotation Xrotation
						JOINT rHand
						{
							OFFSET -8.370511 0.000000 0.000000 
							CHANNELS 3 Zrotation Yrotation Xrotation
							End Site
							{
								OFFSET -4.083176 0.000000 0.000000 
							}
						}
					}
				}
			}
		}
	}
	JOINT lThigh
	{
		OFFSET 5.308129 -1.633274 1.361059 
		CHANNELS 3 Xrotation Zrotation Yrotation
		JOINT lShin
		{
			OFFSET -2.041588 -20.007561 0.000000 
			CHANNELS 3 Xrotation Zrotation Yrotation
			JOINT lFoot
			{
				OFFSET 0.000000 -19.190928 -1.224953 
				CHANNELS 3 Xrotation Yrotation Zrotation
				End Site
				{
					OFFSET 0.000000 -2.449906 4.627600 
				}
			}
		}
	}
	JOINT rThigh
	{
		OFFSET -5.308129 -1.633274 1.361059 
		CHANNELS 3 Xrotation Zrotation Yrotation
		JOINT rShin
		{
			OFFSET 2.041588 -20.007561 0.000000 
			CHANNELS 3 Xrotation Zrotation Yrotation
			JOINT rFoot
			{
				OFFSET 0.000000 -19.190928 -1.224953 
				CHANNELS 3 Xrotation Yrotation Zrotation
				End Site
				{
					OFFSET 0.000000 -2.449906 4.627600 
				}
			}
		}
	}
}
MOTION
Frames: 16
Frame Time: 0.016667
-0.142933 34.914383 -1.707925 105.820000 -0.988892 2.313760 -27.698900 2.593720 3.913730 22.093700 4.080570 2.658650 40.578201 1.660610 -6.547550 23.030100 2.352910 -2.140480 2.000000 -2.000000 0.000000 83.228500 -31.580601 98.398903 25.927999 -0.337803 0.059838 0.049413 0.029113 -122.898003 -2.000000 2.000000 0.000000 -80.877899 27.017200 75.640999 -32.764000 0.329814 0.073991 -0.074683 0.057131 -157.781006 -52.942638 -8.345131 -8.675211 43.919350 4.072865 2.610482 -3.104397 -4.088515 -2.681040 -52.739254 -0.846559 -9.763911 48.166416 -3.933943 -2.857207 13.235774 -5.762482 0.937602 
-0.161614 34.958530 -1.747771 105.694000 -0.960039 2.211280 -27.629200 2.671780 3.983680 22.152599 4.129260 2.713010 40.751701 1.736020 -6.675750 23.157200 2.350830 -2.203630 2.000000 -2.000000 0.000000 83.154701 -30.925501 100.459000 25.596001 -0.338148 0.059125 0.049151 0.028051 -123.289001 -2.000000 2.000000 0.000000 -81.162804 26.987499 74.953003 -32.226898 0.330503 0.072910 -0.073768 0.054670 -156.843994 -52.897579 -8.433355 -8.464719 45.668472 3.961896 2.705469 -2.529786 -4.883271 -2.651451 -53.045998 -1.212257 -11.091725 50.972389 -3.690724 -3.003748 14.439382 -4.810587 0.673922 
-0.186699 35.002117 -1.798076 105.616997 -0.942243 2.028850 -27.569000 2.765290 4.067320 22.201700 4.207260 2.777360 40.937000 1.853690 -6.773430 23.284700 2.376400 -2.266890 2.000000 -2.000000 0.000000 83.138802 -30.221201 102.817001 25.332300 -0.338418 0.058557 0.048614 0.025761 -124.128998 -2.000000 2.000000 0.000000 -81.438004 26.948000 74.279198 -31.689800 0.331181 0.071823 -0.072876 0.052143 -155.886993 -52.957508 -8.444197 -8.210999 47.603371 3.842671 2.811583 -1.777382 -5.496225 -2.520348 -53.186184 -1.452950 -12.221248 53.518875 -3.459157 -3.134027 15.488417 -3.987807 0.418483 
-0.214110 35.045033 -1.841495 105.568001 -0.936754 1.805410 -27.528999 2.860480 4.128400 22.250799 4.285240 2.832080 41.122299 1.963190 -6.876640 23.412201 2.401910 -2.339790 2.000000 -2.000000 0.000000 83.181396 -29.526400 105.244003 25.088200 -0.338666 0.058029 0.048026 0.023063 -125.114998 -2.000000 2.000000 0.000000 -81.683800 26.918301 73.634697 -31.162399 0.331837 0.070749 -0.072017 0.049575 -154.919998 -52.987617 -8.372136 -7.855441 49.710613 3.755871 2.915976 -0.941863 -5.892255 -2.354671 -53.371407 -1.610917 -13.187885 55.902893 -3.272241 -3.246541 16.510693 -3.311797 0.215134 
-0.232942 35.083679 -1.875465 105.471001 -0.923217 1.720170 -27.471201 2.907810 4.115680 22.290100 4.324200 2.836180 41.278301 1.962440 -6.987260 23.509399 2.372640 -2.404070 2.000000 -2.000000 0.000000 83.234100 -28.860800 107.597000 24.873301 -0.338883 0.057565 0.047443 0.020139 -126.180000 -2.000000 2.000000 0.000000 -81.890404 26.898300 73.009697 -30.713200 0.332388 0.069830 -0.071251 0.056916 -154.011993 -52.825340 -8.343785 -7.532752 51.797329 3.661106 3.012975 -0.088912 -6.237184 -2.174832 -53.335964 -1.794407 -14.054894 58.057831 -3.115778 -3.339019 17.356207 -2.810951 0.039658 
-0.245351 35.121872 -1.902853 105.364998 -0.893685 1.764120 -27.415199 2.907060 4.030230 22.319500 4.314370 2.799030 41.320202 1.820970 -7.065620 23.537701 2.307710 -2.425680 2.000000 -2.000000 0.000000 83.307404 -28.292900 109.564003 24.736601 -0.339020 0.057269 0.046906 0.017152 -127.264000 -2.000000 2.000000 0.000000 -82.116898 26.897800 72.296799 -30.312799 0.332873 0.069007 -0.070561 0.054610 -153.151993 -52.653450 -8.384206 -7.175218 53.764626 3.565334 3.085862 0.953413 -6.617858 -1.918573 -53.177868 -2.033778 -14.777533 60.131626 -2.972372 -3.402632 18.007282 -2.490699 -0.075616 
-0.262952 35.165459 -1.926321 105.376999 -0.863167 1.787710 -27.388300 2.897350 3.948710 22.348801 4.285020 2.751490 41.245800 1.645770 -7.074370 23.497700 2.253120 -2.427250 2.000000 -2.000000 0.000000 83.382004 -27.832701 111.057999 24.648701 -0.339107 0.057078 0.046458 0.014371 -128.268997 -2.000000 2.000000 0.000000 -82.323700 26.897301 71.623001 -29.980801 0.333271 0.068321 -0.060176 0.042661 -152.341995 -52.537956 -8.355660 -6.808660 55.759811 3.479109 3.158962 1.743284 -6.968760 -1.694383 -53.171581 -2.204314 -15.330195 62.018417 -2.853619 -3.485869 18.686386 -2.219856 -0.163538 
-0.288274 35.213989 -1.950563 105.544998 -0.830373 1.761630 -27.409401 2.885280 3.888950 22.358500 4.255710 2.722000 41.097900 1.578650 -7.019610 23.419800 2.272800 -2.404310 2.000000 -2.000000 0.000000 83.438103 -27.480200 112.122002 24.560801 -0.339194 0.056887 0.046177 0.012450 -128.962997 -2.000000 2.000000 0.000000 -82.481102 26.867701 71.130302 -29.717100 0.333584 0.067776 -0.059643 0.040681 -151.608994 -52.523518 -8.243440 -6.466701 57.606335 3.410640 3.229450 2.450958 -7.265731 -1.464020 -53.209351 -2.279552 -15.754792 63.647144 -2.776708 -3.535655 19.324821 -1.921223 -0.230100 
-0.311668 35.262970 -1.974514 105.763000 -0.772577 1.836290 -27.450399 2.833310 3.805680 22.338699 4.187430 2.669600 40.929501 1.618820 -6.958650 23.352501 2.338400 -2.394170 2.000000 -2.000000 0.000000 83.466400 -27.264900 112.575996 24.511999 -0.339243 0.056782 0.046040 0.011447 -129.324005 -2.000000 2.000000 0.000000 -82.608803 26.799101 70.837402 -29.541300 0.333792 0.067411 -0.059209 0.038985 -150.983994 -52.501583 -8.226592 -6.287325 59.197094 3.357113 3.298501 3.200124 -7.571318 -1.250967 -53.160606 -2.395546 -16.100279 65.060921 -2.683018 -3.576105 19.779856 -1.631000 -0.323225 
-0.334786 35.308914 -1.993577 106.022003 -0.658022 2.006960 -27.500200 2.746600 3.739780 22.299400 4.089910 2.614950 40.796799 1.703390 -6.928050 23.314600 2.412780 -2.399260 2.000000 -2.000000 0.000000 83.457298 -27.226101 112.327003 24.521799 -0.339233 0.056803 0.046040 0.011447 -129.324005 -2.000000 2.000000 0.000000 -82.716698 26.701300 70.632401 -29.414400 0.333941 0.067147 -0.058824 0.037418 -150.408005 -52.370117 -8.303369 -6.240294 60.403645 3.321028 3.331845 4.041828 -7.827977 -1.043213 -53.080486 -2.576841 -16.380331 66.179573 -2.618428 -3.608442 20.269030 -1.359448 -0.401962 
-0.364557 35.347336 -1.999049 106.370003 -0.492801 2.136090 -27.568701 2.649270 3.701400 22.250200 3.992400 2.569510 40.710400 1.748110 -6.905170 23.295799 2.459200 -2.403500 2.000000 -2.000000 0.000000 83.399902 -27.216700 111.848000 24.531500 -0.339223 0.056824 0.046128 0.012098 -129.089996 -2.000000 2.000000 0.000000 -82.814697 26.613199 70.466499 -29.346001 0.334021 0.067005 -0.058529 0.036167 -149.949005 -52.263409 -8.388918 -6.270898 61.225788 3.329566 3.354928 4.992779 -8.020722 -0.802638 -53.079990 -2.729906 -16.505581 67.170242 -2.577786 -3.647375 20.715881 -1.087482 -0.463456 
-0.404676 35.378452 -1.994106 106.843002 -0.316946 2.169860 -27.674999 2.572210 3.717820 22.191299 3.914430 2.563200 40.660301 1.746220 -6.897090 23.286400 2.477800 -2.407250 2.000000 -2.000000 0.000000 83.283096 -27.109400 111.711998 24.502199 -0.339253 0.056760 0.046227 0.012802 -128.835999 -2.000000 2.000000 0.000000 -82.922501 26.535000 70.320000 -29.306999 0.334066 0.066924 -0.058359 0.035421 -149.675995 -52.188118 -8.394136 -6.348457 61.616112 3.353127 3.363802 5.823472 -8.060830 -0.612800 -53.165619 -2.758330 -16.507256 67.845314 -2.575081 -3.658897 21.280212 -0.961839 -0.464231 
-0.452068 35.404064 -1.984501 107.459999 -0.167021 2.181380 -27.810301 2.510510 3.747330 22.122700 3.846220 2.556660 40.628502 1.720980 -6.896350 23.286501 2.487020 -2.404030 2.000000 -2.000000 0.000000 83.136002 -26.913900 111.985001 24.453400 -0.339301 0.056654 0.046250 0.012964 -128.776993 -2.000000 2.000000 0.000000 -83.059601 26.476299 70.173599 -29.267900 0.334112 0.066843 -0.058197 0.034700 -149.412003 -52.193253 -8.360205 -6.504841 61.434780 3.436074 3.345287 6.440847 -7.895031 -0.495988 -53.287994 -2.663144 -16.392818 68.185799 -2.606346 -3.652126 21.838343 -0.972337 -0.382863 
-0.507993 35.425186 -1.970245 108.212997 -0.027470 2.192860 -27.984800 2.460690 3.781100 22.054100 3.807300 2.560820 40.586498 1.704580 -6.880500 23.267300 2.505800 -2.408200 2.000000 -2.000000 0.000000 82.978699 -26.659599 112.453003 24.404600 -0.339349 0.056548 0.046177 0.012450 -128.962997 -2.000000 2.000000 0.000000 -83.225700 26.407900 70.095497 -29.228800 0.334157 0.066761 -0.057993 0.033765 -149.070007 -52.240223 -8.285696 -6.766391 60.664387 3.548825 3.321480 6.648923 -7.479941 -0.504258 -53.479870 -2.438913 -16.107929 67.919876 -2.644010 -3.644031 22.670219 -0.994655 -0.262299 
-0.574075 35.442936 -1.949687 109.100998 0.118242 2.187860 -28.178600 2.414300 3.824070 21.995300 3.787870 2.575970 40.565399 1.639510 -6.939910 23.276501 2.468750 -2.430420 2.000000 -2.000000 0.000000 82.821198 -26.375799 113.053001 24.385000 -0.339368 0.056506 0.046004 0.011176 -129.421997 -2.000000 2.000000 0.000000 -83.362198 26.281000 70.183502 -29.248400 0.334135 0.066802 -0.057806 0.032883 -148.748001 -52.362705 -8.231499 -7.120599 59.418022 3.738699 3.263426 6.409921 -6.934676 -0.653030 -53.682503 -2.062107 -15.653219 67.003906 -2.760749 -3.603631 23.651411 -0.965458 -0.103599 
-0.643665 35.458664 -1.926557 110.077003 0.254788 2.232610 -28.382401 2.352580 3.853610 21.936600 3.768440 2.581390 40.513100 1.571290 -6.979070 23.256599 2.450650 -2.447460 2.000000 -2.000000 0.000000 82.663498 -26.062700 113.697998 24.404600 -0.339349 0.056548 0.045809 0.009630 -129.977997 -2.000000 2.000000 0.000000 -83.478798 26.105400 70.398499 -29.326500 0.334044 0.066964 -0.057700 0.032374 -148.561996 -52.507496 -8.243792 -7.718068 57.463161 3.952124 3.177656 5.922686 -6.518552 -0.887170 -53.922359 -1.585242 -14.979940 65.360619 -2.934929 -3.541298 24.753534 -0.806046 0.044981 
